Coordinates
version=1
nRows=5
nColumns=63
inDegrees=yes

Units are S.I. units (second, meters, Newtons, ...)
If the header above contains a line with 'inDegrees', this indicates whether rotational values are in degrees (yes) or radians (no).

endheader
time	pelvis_tilt	pelvis_list	pelvis_rotation	pelvis_tx	pelvis_ty	pelvis_tz	hip_flexion_r	hip_adduction_r	hip_rotation_r	knee_angle_r	knee_angle_r_beta	ankle_angle_r	subtalar_angle_r	mtp_angle_r	hip_flexion_l	hip_adduction_l	hip_rotation_l	knee_angle_l	knee_angle_l_beta	ankle_angle_l	subtalar_angle_l	mtp_angle_l	L5_S1_Flex_Ext	L5_S1_Lat_Bending	L5_S1_axial_rotation	L4_L5_Flex_Ext	L4_L5_Lat_Bending	L4_L5_axial_rotation	L3_L4_Flex_Ext	L3_L4_Lat_Bending	L3_L4_axial_rotation	L2_L3_Flex_Ext	L2_L3_Lat_Bending	L2_L3_axial_rotation	L1_L2_Flex_Ext	L1_L2_Lat_Bending	L1_L2_axial_rotation	L1_T12_Flex_Ext	L1_T12_Lat_Bending	L1_T12_axial_rotation	Abs_r3	Abs_r2	Abs_r1	Abs_t1	Abs_t2	neck_flexion	neck_bending	neck_rotation	arm_flex_r	arm_add_r	arm_rot_r	elbow_flex_r	pro_sup_r	wrist_flex_r	wrist_dev_r	arm_flex_l	arm_add_l	arm_rot_l	elbow_flex_l	pro_sup_l	wrist_flex_l	wrist_dev_l
      1.05000000	      0.61450875	     -1.08207776	    105.46453504	      0.21086304	      0.83329802	      0.61727620	     -7.13307878	      1.49003933	      3.44204368	      2.96100202	      0.05167923	     25.77794311	    -11.04105968	      0.00000000	     -5.88509982	      2.32106478	     13.94938233	      0.66218477	      0.01155730	     29.54760349	    -10.02558184	      0.00000000	      0.13378158	      0.16853568	     -0.86580414	      0.24844578	      0.22415245	     -0.91991690	      0.21978976	      0.40977765	     -0.91991690	      0.15289897	      0.40977765	     -0.75757862	      0.12422958	      0.34367796	     -0.70346586	      0.07644280	      0.26106177	     -0.64935310	      0.95558846	      1.90650930	     -4.81534289	      0.00000000	      0.00000000	      5.68410792	     -6.75944754	     12.90629039	     71.30654202	   -103.38542667	    110.83375223	      9.02454345	     19.61417640	     -9.99297059	      9.00199190	    -70.24892608	    -80.74003634	    -23.31908238	      5.43979766	     83.85524972	     -7.93203810	      1.73622746
      1.06666667	      0.41438039	     -1.16405497	    105.58543228	      0.21109253	      0.83289942	      0.61696437	     -7.60697418	      1.38416789	      6.20642732	      1.94882680	      0.03401344	     24.39734272	    -15.16926098	      0.00000000	     -6.01666997	      2.49780247	     16.30959230	      0.31043218	      0.00541806	     28.58290449	    -13.16489786	      0.00000000	      0.14675432	      0.12439919	     -0.89052654	      0.27253745	      0.16545093	     -0.94618445	      0.24110267	      0.30246420	     -0.94618445	      0.16772551	      0.30246420	     -0.77921072	      0.13627606	      0.25367484	     -0.72355281	      0.08385542	      0.19269435	     -0.66789490	      1.04825144	      1.40722857	     -4.95284144	      0.00000000	      0.00000000	      5.52341848	     -6.21852038	     12.42604449	     72.58129547	   -102.99912903	    115.32677645	      8.49738852	     16.14475096	     -9.98504245	      8.33251492	    -72.19311969	    -80.94128886	    -24.43548592	      5.15925734	     85.35550249	     -7.61546220	      1.49290982
      1.08333333	      0.39131173	     -1.27133654	    105.34235788	      0.21133311	      0.83269215	      0.61723678	     -7.50515021	      1.28827366	      6.46747584	      1.86558259	      0.03256056	     24.37106891	    -15.16882750	      0.00000000	     -5.91219530	      2.58885110	     16.01594577	      0.30990880	      0.00540893	     28.48143919	    -13.11516385	      0.00000000	      0.15946018	      0.12530831	     -0.84090003	      0.29613349	      0.16666005	     -0.89345628	      0.26197712	      0.30467462	     -0.89345628	      0.18224703	      0.30467462	     -0.73578753	      0.14807472	      0.25552870	     -0.68323127	      0.09111554	      0.19410257	     -0.63067502	      1.13900809	      1.41751264	     -4.67683369	      0.00000000	      0.00000000	      5.46357986	     -6.38670644	     12.63065419	     72.37996567	   -103.01834030	    115.41087844	      8.39511728	     16.22003110	     -9.86555289	      7.97777797	    -71.86784463	    -80.92528136	    -24.89221519	      5.15161477	     84.95908962	     -7.34164490	      1.11947956
      1.10000000	      0.38209195	     -1.37422006	    105.15993288	      0.21157817	      0.83256048	      0.61748933	     -7.40611450	      1.22370862	      6.76877990	      1.77911289	      0.03105138	     24.26630272	    -15.34483600	      0.00000000	     -5.79951358	      2.65568018	     15.66376553	      0.31290098	      0.00546115	     28.39781135	    -12.94802880	      0.00000000	      0.16596947	      0.13095078	     -0.79768597	      0.30822190	      0.17416454	     -0.84754134	      0.27267124	      0.31839374	     -0.84754134	      0.18968651	      0.31839374	     -0.69797522	      0.15411925	      0.26703484	     -0.64811985	      0.09483495	      0.20284276	     -0.59826448	      1.18550332	      1.48134145	     -4.43649007	      0.00000000	      0.00000000	      5.72286441	     -6.74355862	     13.07457678	     72.37004198	   -103.07554622	    115.23546700	      8.20070685	     16.22365266	     -9.88041185	      7.97950132	    -71.00621428	    -80.84555670	    -25.98518910	      5.06893046	     84.27177718	     -6.86155496	      0.37871047
      1.11666667	      0.35704922	     -1.35658247	    105.08785422	      0.21162678	      0.83269322	      0.61779196	     -7.44934730	      1.18491169	      7.18740991	      1.67833620	      0.02929249	     24.03866053	    -15.82808623	      0.00000000	     -5.81201340	      2.69386931	     14.96843433	      0.31838260	      0.00555682	     28.46988703	    -12.14707866	      0.00000000	      0.15336204	      0.13822870	     -0.78137839	      0.28480864	      0.18384417	     -0.83021454	      0.25195849	      0.33608926	     -0.83021454	      0.17527747	      0.33608926	     -0.68370609	      0.14241199	      0.28187597	     -0.63486994	      0.08763107	      0.21411626	     -0.58603379	      1.09544971	      1.56367071	     -4.34579219	      0.00000000	      0.00000000	      5.97289615	     -6.88671033	     13.35870473	     72.90040682	   -103.13133592	    112.69071284	      8.02514804	     18.95364851	     -9.93431634	      8.09427343	    -68.98383249	    -80.60002534	    -29.54447952	      4.80181770	     85.19924625	     -6.51685425	     -0.65449485
